<svg xmlns="http://www.w3.org/2000/svg" version="1.1" xmlns:xlink="http://www.w3.org/1999/xlink" xmlns:svgjs="http://svgjs.dev/svgjs" width="1000" height="1000" viewBox="0 0 1000 1000"><rect width="1000" height="1000" fill="#ffffff"></rect><g transform="matrix(0.7,0,0,0.7,149.57575757575756,282.1265587044535)"><svg viewBox="0 0 396 247" data-background-color="#ffffff" preserveAspectRatio="xMidYMid meet" height="623" width="1000" xmlns="http://www.w3.org/2000/svg" xmlns:xlink="http://www.w3.org/1999/xlink"><g id="tight-bounds" transform="matrix(1,0,0,1,0.2400000000000091,-0.09999999999999432)"><svg viewBox="0 0 395.52 247.2" height="247.2" width="395.52"><g><svg></svg></g><g><svg viewBox="0 0 395.52 247.2" height="247.2" width="395.52"><g transform="matrix(1,0,0,1,121.37519999999999,47.215199999999996)"><svg viewBox="0 0 152.7696 152.7696" height="152.7696" width="152.7696"><g><svg viewBox="0 0 152.7696 152.7696" height="152.7696" width="152.7696"><g><svg viewBox="0 0 152.7696 152.7696" height="152.7696" width="152.7696"><g id="textblocktransform"><svg viewBox="0 0 152.7696 152.7696" height="152.7696" width="152.7696" id="textblock"><g><svg viewBox="0 0 152.7696 152.7696" height="152.7696" width="152.7696"><g transform="matrix(1,0,0,1,49.3786949702109,49.3786949702109)"><svg viewBox="0 0 54.012210059578194 54.012210059578194" height="54.012210059578194" width="54.012210059578194"><g><circle r="27" cx="27.006105029789097" cy="27.006105029789097" fill="#f500a2" data-fill-palette-color="accent"></circle></g></svg></g><g><path d="M74.195 8.842v0l-0.242 0.771 4.891-0.05-0.257-0.766c-0.59-1.771-1.074-3.24-1.453-4.407-0.371-1.167-0.595-1.894-0.671-2.18v0l-0.124-0.428c-0.159 0.714-0.874 3.067-2.144 7.06zM73.344 11.565l-1.189 3.746-2.466 0.025 5.115-15.305 3.054-0.031 5.366 15.198-2.496 0.026-1.235-3.721z" fill="#222222" data-fill-palette-color="primary"></path><path d="M74.208 146.23v0l-0.258 0.766 4.891 0.05-0.242-0.771c-0.554-1.789-1.008-3.268-1.362-4.436-0.347-1.175-0.556-1.906-0.626-2.192v0l-0.116-0.431c-0.174 0.704-0.936 3.042-2.287 7.014zM73.302 148.936l-1.266 3.721-2.465-0.025 5.435-15.198 3.054 0.031 5.045 15.305-2.485-0.026-1.17-3.745z" fill="#222222" data-fill-palette-color="primary"></path><path d="M1.936 78.237c0-3.218 2.609-5.826 5.827-5.826 3.218 0 5.826 2.609 5.826 5.826 0 3.218-2.609 5.826-5.826 5.826-3.218 0-5.826-2.609-5.827-5.826z" fill="#222222" data-fill-palette-color="primary"></path><path d="M139.181 78.237c0-3.218 2.609-5.826 5.826-5.826 3.218 0 5.826 2.609 5.826 5.826 0 3.218-2.609 5.826-5.826 5.826-3.218 0-5.826-2.609-5.826-5.826z" fill="#222222" data-fill-palette-color="primary"></path></g></svg></g></svg></g></svg></g></svg></g></svg></g><g><path d="M199.985 0c37.227 0 70.609 16.457 93.269 42.494h-2.404c-22.304-24.97-54.749-40.69-90.865-40.69-36.116 0-68.561 15.72-90.865 40.69l-2.405 0c22.66-26.036 56.043-42.494 93.27-42.494zM323.585 123.6c0 11.422-1.549 22.483-4.45 32.983l0-7.613c1.734-8.183 2.646-16.67 2.646-25.37 0-8.7-0.912-17.187-2.646-25.37l0-7.613c2.9 10.5 4.45 21.56 4.45 32.983zM199.985 247.2c-37.227 0-70.609-16.457-93.27-42.494l2.405 0c22.304 24.97 54.749 40.69 90.865 40.69 36.116 0 68.561-15.72 90.865-40.69l2.404 0c-22.66 26.036-56.043 42.494-93.269 42.494z" fill="#222222" stroke="transparent" data-fill-palette-color="tertiary"></path></g></svg></g><defs></defs></svg><rect width="395.52" height="247.2" fill="none" stroke="none" visibility="hidden"></rect></g></svg></g></svg>